<?xml version="1.0" encoding="UTF-8" standalone="no"?>
<!-- Created with Inkscape (http://www.inkscape.org/) -->

<svg
   version="1.1"
   id="svg9304"
   width="1200"
   height="1200"
   viewBox="0 0 1200 1200"
   sodipodi:docname="genie-in-the-lamp-pdv.svg"
   inkscape:version="1.2 (dc2aedaf03, 2022-05-15)"
   xmlns:inkscape="http://www.inkscape.org/namespaces/inkscape"
   xmlns:sodipodi="http://sodipodi.sourceforge.net/DTD/sodipodi-0.dtd"
   xmlns="http://www.w3.org/2000/svg"
   xmlns:svg="http://www.w3.org/2000/svg">
  <defs
     id="defs9308">
    <clipPath
       clipPathUnits="userSpaceOnUse"
       id="clipPath9320">
      <path
         d="M 0,900 H 900 V 0 H 0 Z"
         id="path9318" />
    </clipPath>
  </defs>
  <sodipodi:namedview
     id="namedview9306"
     pagecolor="#ffffff"
     bordercolor="#000000"
     borderopacity="0.25"
     inkscape:showpageshadow="2"
     inkscape:pageopacity="0.0"
     inkscape:pagecheckerboard="0"
     inkscape:deskcolor="#d1d1d1"
     showgrid="false"
     inkscape:zoom="0.6975"
     inkscape:cx="600"
     inkscape:cy="600.71685"
     inkscape:window-width="1920"
     inkscape:window-height="1017"
     inkscape:window-x="-8"
     inkscape:window-y="-8"
     inkscape:window-maximized="1"
     inkscape:current-layer="g9312">
    <inkscape:page
       x="0"
       y="0"
       id="page9310"
       width="1200"
       height="1200" />
  </sodipodi:namedview>
  <g
     id="g9312"
     inkscape:groupmode="layer"
     inkscape:label="Page 1"
     transform="matrix(1.3333333,0,0,-1.3333333,0,1200)">
    <g
       id="g9314">
      <g
         id="g9316"
         clip-path="url(#clipPath9320)">
        <g
           id="g9322"
           transform="translate(412.8877,379.7783)">
          <path
             d="m 0,0 c 5.803,-13.87 11.604,-27.736 17.404,-41.603 4.156,-9.938 3.972,-20.065 -0.54,-29.846 -4.511,-9.783 -12.1,-16.495 -22.359,-19.781 -1.421,-0.459 -2.846,-0.913 -4.271,-1.371 -5.954,-1.908 -10.371,-5.75 -13.085,-11.382 -2.71,-5.633 -2.964,-11.486 -0.742,-17.33 2.263,-5.955 4.528,-11.912 6.792,-17.869 3.201,-8.424 4.743,-16.078 5.057,-25.086 0.366,-10.484 0.732,-20.968 1.097,-31.449 3.482,9.318 6.961,18.633 10.438,27.948 2.848,7.621 4.305,14.49 4.804,22.606 0.288,4.687 2.102,9.052 5.371,12.815 4.569,5.265 10.708,7.883 17.673,7.537 9.933,-0.494 19.866,-0.987 29.799,-1.48 19.928,-0.991 37.074,13.969 38.789,33.848 2.009,23.241 4.014,46.48 6.023,69.719 C 68.168,-15.15 34.084,-7.576 0,0"
             style="fill:#4d9ceb;fill-opacity:1;fill-rule:evenodd;stroke:none"
             id="path9324" />
        </g>
        <g
           id="g9326"
           transform="translate(412.8877,379.7783)">
          <path
             d="m 0,0 c 5.803,-13.87 11.604,-27.736 17.404,-41.603 4.156,-9.938 3.972,-20.065 -0.54,-29.846 -4.511,-9.783 -12.1,-16.495 -22.359,-19.781 -1.421,-0.459 -2.846,-0.913 -4.271,-1.371 -5.954,-1.908 -10.371,-5.75 -13.085,-11.382 -2.71,-5.633 -2.964,-11.486 -0.742,-17.33 2.263,-5.955 4.528,-11.912 6.792,-17.869 3.201,-8.424 4.743,-16.078 5.057,-25.086 0.366,-10.484 0.732,-20.968 1.097,-31.449 4.436,28.436 2.239,53.19 -3.613,75.913 -1.164,4.517 1.271,9.136 5.653,10.736 3.326,1.211 6.649,2.422 9.972,3.632 14.545,5.299 25.053,15.376 30.958,29.684 5.905,14.311 5.561,28.864 -1.012,42.878 -3.926,8.371 -8.218,16.378 -12.835,24.057 l -6.822,6.228 z"
             style="fill:#3889d9;fill-opacity:1;fill-rule:evenodd;stroke:none"
             id="path9328" />
        </g>
        <g
           id="g9330"
           transform="translate(530.5762,553.6455)">
          <path
             d="m 0,0 c 100.903,-17.711 83.096,-113.184 12.775,-141.06 -7.989,-3.164 -1.124,11.057 -10.171,10.205 33.692,17.111 54.071,76.922 -7.056,69.03 C -1.625,-43.623 -2.825,-18.202 0,0"
             style="fill:#3889d9;fill-opacity:1;fill-rule:evenodd;stroke:none"
             id="path9332" />
        </g>
        <g
           id="g9334"
           transform="translate(546.3232,426.4531)">
          <path
             d="m 0,0 c -9.529,1.479 -18.455,-5.048 -19.935,-14.579 -1.48,-9.532 5.047,-18.456 14.58,-19.936 9.531,-1.48 18.455,5.047 19.935,14.58 C 16.06,-10.404 9.532,-1.48 0,0"
             style="fill:#3889d9;fill-opacity:1;fill-rule:evenodd;stroke:none"
             id="path9336" />
        </g>
        <g
           id="g9338"
           transform="translate(528.5605,670.7402)">
          <path
             d="m 0,0 c -3.922,0 -8.421,-4.568 -10.05,-10.199 -1.63,-5.633 0.229,-10.2 4.151,-10.2 3.92,0 8.42,4.567 10.049,10.2 C 5.78,-4.568 3.921,0 0,0"
             style="fill:#3889d9;fill-opacity:1;fill-rule:evenodd;stroke:none"
             id="path9340" />
        </g>
        <g
           id="g9342"
           transform="translate(476.3574,705.2187)">
          <path
             d="m 0,0 c 29.407,0 53.247,-23.838 53.247,-53.244 0,-25.051 -17.303,-46.058 -40.603,-51.731 l -0.034,-4.605 c -0.084,-12.449 8.028,-23.019 20.076,-26.156 29.477,-7.676 51.882,-26.37 51.882,-62.823 0,-50.912 -43.69,-117.175 -89.322,-117.175 -45.631,0 -75.926,66.263 -75.926,117.175 0,31.021 11.251,49.183 30.369,58.637 8.579,4.243 14.142,11.572 15.92,20.975 l 1.086,5.741 c 1.744,9.212 -0.615,17.869 -6.786,24.926 -8.191,9.364 -13.154,21.619 -13.154,35.036 C -53.245,-23.838 -29.408,0 0,0"
             style="fill:#4d9ceb;fill-opacity:1;fill-rule:evenodd;stroke:none"
             id="path9344" />
        </g>
        <g
           id="g9346"
           transform="translate(437.3105,615.6816)">
          <path
             d="m 0,0 c -0.336,0.424 -0.685,0.844 -1.044,1.257 -8.191,9.364 -13.154,21.619 -13.154,35.036 0,29.406 23.837,53.244 53.245,53.244 C 15.708,82.227 1.712,67.911 0.406,44.075 -12.928,48.677 -14.134,33.655 -2.693,25.743 -3.037,16.727 -1.791,8.267 0,0 m 5.392,-25.528 0.35,1.859 0.018,0.093 c 0.18,-0.784 0.356,-1.568 0.525,-2.355 z"
             style="fill:#3889d9;fill-opacity:1;fill-rule:evenodd;stroke:none"
             id="path9348" />
        </g>
        <g
           id="g9350"
           transform="translate(423.1123,651.9746)">
          <path
             d="m 0,0 c 0.279,-18.634 4.071,-42.039 33.591,-64.986 7.952,-6.182 16.5,-9.28 26.567,-9.627 1.555,-0.055 3.095,-0.077 4.616,-0.06 16.095,0.185 29.523,11.226 32.812,26.983 2.326,11.153 4.653,22.306 6.982,33.461 -3.549,-9.313 -17.844,-23.529 -24.417,-23.691 -2.157,-0.054 -4.071,0.61 -5.668,1.958 -1.534,1.299 -3.315,1.871 -5.319,1.708 -0.811,-0.065 -1.624,-0.132 -2.438,-0.198 -2.263,-0.183 -4.134,-1.262 -5.429,-3.129 -0.93,-1.345 -2.255,-2.212 -3.901,-2.554 C 37.166,-44.316 8.4,-28.717 0,0"
             style="fill:#1a1a1a;fill-opacity:1;fill-rule:evenodd;stroke:none"
             id="path9352" />
        </g>
        <g
           id="g9354"
           transform="translate(472.3984,623.4893)">
          <path
             d="M 0,0 C 12.978,-12.726 26.196,-8.026 39.485,1.535 26.326,1.024 13.162,0.513 0,0"
             style="fill:#ffffff;fill-opacity:1;fill-rule:evenodd;stroke:none"
             id="path9356" />
        </g>
        <path
           d="m 468.27,701.078 h 10.329 v 17.3 H 468.27 Z"
           style="fill:#f5ac00;fill-opacity:1;fill-rule:evenodd;stroke:none"
           id="path9358" />
        <g
           id="g9360"
           transform="translate(468.2705,718.3779)">
          <path
             d="m 0,0 c -2.711,7.143 -11.844,14.751 -8.132,21.431 4.607,8.293 16.164,1.281 22.437,8.398 3.204,3.636 -2.471,9.03 -0.362,16.647 C 16.353,38.299 25.098,32.787 26.981,26.724 32.611,8.616 20.254,6.588 10.329,0 Z"
             style="fill:#1a1a1a;fill-opacity:1;fill-rule:evenodd;stroke:none"
             id="path9362" />
        </g>
        <g
           id="g9364"
           transform="translate(469.6924,645.9512)">
          <path
             d="m 0,0 c 2.987,0 5.424,3.712 5.424,8.263 0,4.55 -2.437,8.262 -5.424,8.262 -2.986,0 -5.423,-3.712 -5.423,-8.262 C -5.423,3.712 -2.986,0 0,0"
             style="fill:#195c9e;fill-opacity:1;fill-rule:evenodd;stroke:none"
             id="path9366" />
        </g>
        <g
           id="g9368"
           transform="translate(510.4141,651.6318)">
          <path
             d="m 0,0 c 2.658,0 4.828,3.306 4.828,7.359 0,4.053 -2.17,7.359 -4.828,7.359 -2.661,0 -4.831,-3.306 -4.831,-7.359 C -4.831,3.306 -2.661,0 0,0"
             style="fill:#195c9e;fill-opacity:1;fill-rule:evenodd;stroke:none"
             id="path9370" />
        </g>
        <g
           id="g9372"
           transform="translate(497.2246,634.5908)">
          <path
             d="m 0,0 c -3.53,0 -7.136,0.275 -7.136,-1.614 0,-1.89 3.606,-5.228 7.136,-5.228 3.527,0 5.646,3.338 5.646,5.228 C 5.646,0.275 3.527,0 0,0"
             style="fill:#3889d9;fill-opacity:1;fill-rule:evenodd;stroke:none"
             id="path9374" />
        </g>
        <g
           id="g9376"
           transform="translate(416.5107,559.3252)">
          <path
             d="m 0,0 c -100.904,-17.711 -83.094,-113.184 -12.775,-141.057 7.989,-3.166 1.126,11.055 10.173,10.203 -33.695,17.11 -54.071,76.922 7.053,69.03 C 1.627,-43.623 2.827,-18.201 0,0"
             style="fill:#4d9ceb;fill-opacity:1;fill-rule:evenodd;stroke:none"
             id="path9378" />
        </g>
        <g
           id="g9380"
           transform="translate(400.7627,432.1328)">
          <path
             d="M 0,0 C 9.532,1.48 18.458,-5.047 19.939,-14.579 21.418,-24.11 14.891,-33.035 5.359,-34.515 -4.173,-35.994 -13.1,-29.467 -14.577,-19.936 -16.057,-10.403 -9.529,-1.48 0,0"
             style="fill:#4d9ceb;fill-opacity:1;fill-rule:evenodd;stroke:none"
             id="path9382" />
        </g>
        <g
           id="g9384"
           transform="translate(421.7666,420.7031)">
          <path
             d="m 0,0 c -14.504,20.936 -23.66,49.338 -25.668,75.35 9.694,1.973 19.021,2.868 28.025,2.82 C -8.355,45.695 -0.082,22.183 14.02,1.425 9.348,0.949 4.674,0.473 0,0"
             style="fill:#3889d9;fill-opacity:1;fill-rule:evenodd;stroke:none"
             id="path9386" />
        </g>
        <g
           id="g9388"
           transform="translate(412.8877,379.7783)">
          <path
             d="M 0,0 C 4.226,14.003 6.754,29.138 4.778,47.275 45.422,35.202 83.43,30.23 115.12,42.265 115.862,17.771 112.523,-4.428 102.25,-22.724 68.168,-28.581 34.084,-17.561 0,0"
             style="fill:#663300;fill-opacity:1;fill-rule:evenodd;stroke:none"
             id="path9390" />
        </g>
        <g
           id="g9392"
           transform="translate(412.8877,379.7783)">
          <path
             d="M 0,0 C 4.226,14.003 6.754,29.138 4.778,47.275 10.883,45.461 16.927,43.81 22.896,42.352 L 22.898,42.35 C 24.889,23.089 24.059,5.622 18.476,-8.817 12.317,-6.132 6.159,-3.175 0,0"
             style="fill:#402000;fill-opacity:1;fill-rule:evenodd;stroke:none"
             id="path9394" />
        </g>
        <g
           id="g9396"
           transform="translate(344.8398,181.8691)">
          <path
             d="m 0,0 c -2.83,1.746 -6.811,2.825 -11.275,2.825 -4.465,0 -8.447,-1.079 -11.277,-2.825 -2.396,-1.477 -3.879,-3.381 -3.879,-5.356 0,-1.976 1.483,-3.879 3.879,-5.357 2.83,-1.746 6.812,-2.825 11.277,-2.825 4.464,0 8.445,1.079 11.275,2.825 2.397,1.478 3.876,3.381 3.876,5.357 C 3.876,-3.381 2.397,-1.477 0,0 m -7.708,-20.252 c 0.217,-8.361 -3.276,-12.639 -9.943,-13.426 v -2.065 h 32.923 v 2.195 c -7.299,0.286 -9.233,5.431 -9.297,12.262 -4.563,0.347 -9.124,0.69 -13.683,1.034 m -3.567,29.176 c 5.588,0 10.707,-1.435 14.466,-3.755 4.193,-2.586 6.785,-6.3 6.785,-10.525 0,-4.228 -2.592,-7.94 -6.785,-10.529 -3.759,-2.319 -8.878,-3.755 -14.466,-3.755 -5.591,0 -10.708,1.436 -14.47,3.755 -4.19,2.589 -6.784,6.301 -6.784,10.529 0,4.225 2.594,7.939 6.784,10.525 3.762,2.32 8.879,3.755 14.47,3.755"
             style="fill:#e39400;fill-opacity:1;fill-rule:evenodd;stroke:none"
             id="path9398" />
        </g>
        <g
           id="g9400"
           transform="translate(344.665,193.4238)">
          <path
             d="m 0,0 c 5.917,0 11.164,-2.862 14.433,-7.279 v 0.002 c 14.193,-11.565 27.018,-9.909 39.146,-1.502 3.442,-0.603 6.886,-1.203 10.326,-1.807 C 44.371,-18.755 21.556,-41.593 -1.594,-35.82 v 0.003 c -9.163,0.806 -16.35,8.5 -16.35,17.872 C -17.944,-8.034 -9.91,0 0,0"
             style="fill:#f5ac00;fill-opacity:1;fill-rule:evenodd;stroke:none"
             id="path9402" />
        </g>
        <g
           id="g9404"
           transform="translate(345.7314,192.0684)">
          <path
             d="M 0,0 C 2.721,0 4.941,2.218 4.941,4.938 4.941,7.658 2.721,9.876 0,9.876 -2.721,9.876 -4.937,7.658 -4.937,4.938 -4.937,2.218 -2.721,0 0,0"
             style="fill:#e39400;fill-opacity:1;fill-rule:evenodd;stroke:none"
             id="path9406" />
        </g>
      </g>
    </g>
  </g>
</svg>
