<?xml version="1.0" standalone="no"?>
<!DOCTYPE svg PUBLIC "-//W3C//DTD SVG 20010904//EN"
 "http://www.w3.org/TR/2001/REC-SVG-20010904/DTD/svg10.dtd">
<svg version="1.0" xmlns="http://www.w3.org/2000/svg"
 width="700.000000pt" height="700.000000pt" viewBox="0 0 700.000000 700.000000"
 preserveAspectRatio="xMidYMid meet">
<metadata>
Created by potrace 1.14, written by Peter Selinger 2001-2017
</metadata>
<g transform="translate(0.000000,700.000000) scale(0.100000,-0.100000)"
fill="#000000" stroke="none">
<path d="M3360 6479 c-484 -25 -946 -203 -1340 -515 -111 -89 -309 -287 -392
-394 -257 -332 -415 -688 -490 -1107 -19 -109 -22 -162 -22 -358 0 -302 32
-511 119 -770 273 -813 968 -1425 1798 -1584 185 -35 300 -44 521 -38 385 10
673 80 997 242 545 273 964 737 1184 1310 269 702 182 1499 -233 2135 -235
361 -557 647 -943 840 -372 184 -760 262 -1199 239z m378 -49 c653 -69 1247
-407 1634 -927 247 -333 409 -737 458 -1142 18 -154 13 -431 -10 -592 -38
-261 -100 -458 -220 -704 -339 -691 -997 -1171 -1770 -1291 -178 -28 -521 -25
-700 5 -773 132 -1406 608 -1746 1316 -107 223 -184 487 -215 740 -15 127 -15
403 0 520 56 429 207 807 456 1140 316 422 785 739 1290 870 118 31 277 59
380 68 93 8 353 6 443 -3z"/>
<path d="M3279 6353 l-25 -4 12 -107 c17 -137 17 -152 2 -156 -35 -10 -250
-47 -253 -44 -2 2 -7 22 -11 45 l-6 41 78 17 c44 9 84 18 90 20 8 2 7 26 -3
82 -8 43 -17 80 -19 82 -9 10 -348 -72 -366 -88 -5 -4 10 -61 32 -126 22 -65
37 -122 32 -126 -4 -3 -60 -29 -125 -56 l-118 -51 -20 39 -20 39 81 40 c45 21
86 40 91 42 6 2 -4 40 -22 85 l-31 81 -47 -20 c-62 -26 -275 -138 -302 -159
l-22 -16 67 -108 c37 -59 63 -111 59 -115 -4 -4 -57 -44 -117 -89 l-109 -82
-29 27 c-15 15 -28 31 -28 36 0 4 28 29 62 56 117 90 109 69 55 152 l-48 71
-37 -27 c-75 -56 -238 -193 -272 -228 l-34 -36 93 -94 92 -93 -26 -31 c-15
-18 -55 -48 -88 -68 -34 -20 -78 -49 -98 -65 -69 -55 -66 -35 11 66 l59 80
-27 28 c-15 16 -43 42 -63 57 l-35 29 -66 -82 c-73 -92 -188 -263 -188 -281 0
-7 32 -30 72 -52 39 -22 74 -46 76 -52 2 -6 -21 -23 -50 -38 l-54 -26 -53 27
c-29 14 -54 25 -56 23 -9 -10 -49 -97 -75 -165 -17 -43 -50 -107 -73 -142 -55
-86 -98 -212 -86 -253 7 -24 4 -37 -11 -58 -26 -36 -25 -55 1 -73 20 -14 20
-19 10 -104 -6 -48 -11 -114 -11 -145 l0 -58 129 0 130 0 5 -52 c2 -29 10
-107 17 -173 6 -66 12 -129 13 -140 1 -15 -8 -22 -37 -29 -50 -13 -52 -8 -68
121 -14 117 -3 109 -118 96 l-63 -6 7 -61 c20 -188 75 -422 98 -413 7 2 60 18
120 36 102 30 127 32 127 10 0 -6 23 -67 50 -136 28 -69 49 -127 48 -128 -2
-2 -18 -10 -37 -20 -33 -17 -35 -17 -47 0 -8 10 -28 52 -45 94 -17 42 -32 77
-34 79 -3 3 -109 -34 -133 -47 -21 -11 -21 -12 -3 -64 39 -113 154 -337 173
-337 4 0 56 29 115 64 l107 63 56 -81 c31 -45 71 -101 89 -123 l33 -42 -28
-25 c-16 -14 -35 -26 -41 -26 -7 0 -38 34 -68 75 -31 41 -58 75 -60 75 -7 0
-135 -91 -135 -97 0 -22 249 -315 274 -321 6 -1 51 38 100 87 l89 89 86 -75
c138 -122 127 -106 100 -142 -12 -17 -27 -31 -32 -31 -5 0 -39 25 -75 55 -37
30 -69 54 -72 53 -4 -2 -30 -29 -59 -61 -44 -50 -50 -61 -39 -74 33 -40 313
-242 322 -232 1 2 29 47 61 99 31 52 62 101 67 107 8 10 35 0 117 -44 58 -31
110 -60 115 -64 11 -9 -18 -79 -32 -79 -4 0 -43 18 -87 40 -92 46 -84 49 -136
-53 l-30 -58 123 -58 c174 -83 247 -108 259 -90 5 8 25 64 44 125 l35 110 131
-35 131 -35 -5 -39 c-3 -21 -8 -41 -11 -44 -2 -3 -44 4 -93 15 -48 11 -91 18
-95 14 -12 -13 -47 -147 -40 -153 10 -10 173 -47 282 -64 67 -10 96 -12 101
-4 3 6 9 45 13 88 3 42 9 95 12 118 l6 43 77 0 c42 0 100 -3 129 -7 l53 -6 -3
-41 -3 -41 -90 0 -90 0 -8 -74 c-4 -41 -6 -80 -2 -89 5 -12 33 -14 195 -10
104 2 191 6 194 9 2 2 -3 54 -10 114 -7 61 -13 119 -14 130 0 21 12 24 241 62
24 4 27 1 33 -32 4 -21 3 -42 -2 -47 -6 -6 -44 -17 -87 -26 -42 -10 -77 -20
-77 -25 0 -4 5 -41 12 -83 l12 -75 41 6 c74 12 337 81 337 88 0 2 -18 56 -40
121 -22 65 -37 122 -35 126 3 4 33 19 67 33 35 14 89 37 120 51 l57 25 20 -33
c12 -18 21 -36 21 -40 0 -4 -39 -25 -87 -48 -49 -22 -89 -41 -91 -42 -3 -4 54
-146 62 -153 3 -3 29 4 58 17 66 27 308 159 308 167 0 3 -28 52 -61 107 -34
56 -64 104 -65 107 -2 4 48 46 112 94 l116 87 29 -28 c16 -15 29 -31 29 -35 0
-3 -36 -34 -80 -68 -44 -34 -80 -65 -80 -69 0 -14 85 -132 95 -132 24 0 335
261 335 281 0 5 -41 49 -91 98 l-91 88 97 116 c54 65 103 117 109 117 13 -1
56 -35 56 -46 0 -4 -27 -43 -60 -87 -68 -89 -68 -81 12 -149 48 -40 49 -40 70
-22 52 48 238 315 238 344 0 4 -49 36 -109 69 l-110 61 60 123 c32 67 59 128
59 135 0 6 5 12 10 12 15 0 80 -28 80 -34 0 -3 -16 -41 -35 -85 -19 -43 -35
-83 -35 -88 0 -7 30 -25 141 -81 12 -6 97 200 152 370 l16 48 -67 19 c-37 11
-92 26 -122 34 -65 16 -63 5 -28 197 l24 125 37 -1 c21 -1 41 -4 44 -8 4 -4 0
-51 -9 -104 -9 -53 -16 -98 -14 -99 1 -2 38 -10 80 -19 63 -13 80 -13 86 -3
15 23 50 297 50 387 l0 52 -129 0 -129 0 -6 58 c-3 31 -8 92 -11 134 l-7 77
46 -2 c44 -2 46 -3 52 -37 10 -62 11 -63 52 -56 20 3 57 6 81 6 l44 0 -6 44
c-6 41 -5 44 15 38 20 -5 21 -2 14 34 -3 21 -11 70 -16 107 -12 84 -40 169
-86 258 -19 38 -34 80 -34 93 0 31 -187 406 -206 413 -8 3 -30 -4 -50 -16
l-36 -21 -36 22 c-81 48 -80 42 -13 87 34 23 61 45 61 48 0 12 -115 159 -193
246 l-80 89 -91 -91 c-50 -50 -95 -91 -99 -91 -5 0 -41 29 -80 64 -40 35 -85
75 -101 89 l-30 24 23 31 c12 18 28 32 34 32 7 0 41 -25 77 -55 l65 -55 58 60
c31 33 57 64 57 68 -1 16 -307 242 -328 242 -4 0 -16 -15 -26 -32 -11 -18 -41
-67 -68 -109 l-49 -77 -112 58 c-61 32 -113 63 -115 69 -5 14 26 71 38 71 6 0
46 -18 90 -40 l79 -40 41 73 c47 85 52 77 -90 144 -126 59 -239 98 -250 87 -4
-5 -22 -54 -39 -109 -17 -55 -35 -106 -40 -114 -7 -11 -31 -8 -135 20 -126 34
-126 34 -126 64 0 57 8 61 104 41 47 -10 89 -18 93 -18 6 1 52 134 53 153 0 7
-214 56 -309 70 -59 9 -75 8 -82 -2 -4 -7 -11 -53 -15 -101 l-7 -87 -28 6
c-26 5 -28 2 -35 -32 l-7 -38 -60 7 c-33 3 -77 6 -98 6 l-39 0 0 45 0 45 95 0
95 0 0 33 c0 17 3 56 6 85 l7 52 -174 -1 c-96 -1 -185 -4 -200 -6z m324 -52
c2 -10 2 -31 0 -45 -5 -26 -6 -26 -99 -26 -51 0 -94 -3 -96 -7 -2 -5 -2 -45 0
-90 l4 -83 105 0 c112 0 121 -6 71 -43 -24 -18 -31 -19 -72 -7 -66 18 -169 8
-241 -23 -33 -14 -98 -33 -144 -42 -108 -22 -218 -55 -332 -100 -50 -20 -92
-35 -93 -33 -46 70 -53 61 84 114 52 20 99 40 103 44 4 4 -8 57 -27 117 -20
60 -36 117 -36 125 0 10 24 22 73 37 92 27 195 46 203 38 4 -3 7 -23 8 -44 l1
-37 -82 -19 c-46 -11 -83 -24 -83 -31 0 -14 38 -147 44 -153 2 -2 61 7 131 21
69 14 142 26 160 26 19 0 36 3 38 8 3 4 1 39 -3 77 -19 170 -19 184 -2 188 9
3 76 5 148 6 121 1 132 0 137 -18z m310 -15 c41 -8 94 -20 117 -26 42 -11 42
-12 35 -48 -4 -20 -9 -40 -11 -43 -2 -4 -45 2 -95 13 -50 11 -95 16 -99 11
-11 -13 -32 -155 -23 -164 4 -3 37 -12 73 -18 36 -6 107 -24 158 -40 l93 -29
13 27 c7 14 28 70 46 124 39 115 24 111 183 41 142 -63 142 -63 121 -108 -10
-20 -21 -36 -26 -36 -5 0 -39 15 -76 34 -93 47 -108 50 -115 29 -3 -10 -16
-46 -30 -80 l-25 -63 81 -39 c45 -22 114 -57 152 -79 l71 -40 52 86 c29 48 62
98 72 112 l19 25 83 -57 c46 -32 102 -74 126 -95 l43 -38 -28 -34 -28 -33 -72
56 c-39 31 -76 56 -82 56 -8 0 -64 -75 -94 -127 -4 -7 20 -32 60 -64 38 -29
96 -79 131 -111 50 -47 66 -57 80 -49 9 5 51 44 92 85 41 42 80 76 86 76 21 0
214 -227 214 -252 0 -8 -70 -52 -74 -47 -130 175 -119 169 -194 103 -48 -43
-68 -55 -85 -50 -34 9 -152 99 -243 185 -74 72 -87 80 -140 91 -33 6 -72 19
-89 27 -111 59 -147 82 -200 126 -80 67 -155 101 -227 102 -47 2 -62 7 -95 34
-21 17 -63 39 -93 47 -30 9 -70 23 -87 31 -38 18 -39 24 -21 169 l11 94 33 0
c18 0 66 -6 107 -14z m-1233 -212 c0 -6 -41 -30 -91 -53 l-90 -41 42 -78 42
-77 -27 -39 c-14 -21 -31 -65 -38 -97 -11 -53 -16 -61 -58 -88 -26 -17 -58
-46 -71 -66 -23 -34 -26 -35 -91 -35 -38 0 -93 -8 -130 -20 -75 -23 -75 -23
-60 -8 10 10 -8 32 -80 106 l-93 93 69 65 c85 80 185 156 199 151 6 -2 20 -16
31 -31 l21 -28 -30 -24 c-80 -67 -135 -116 -135 -122 1 -4 25 -34 55 -66 l53
-59 74 59 c41 32 109 83 152 112 74 51 77 54 63 75 -7 12 -38 62 -68 111 -52
86 -53 88 -34 103 25 18 100 58 190 100 l70 32 17 -32 c9 -18 17 -37 18 -43z
m1045 -49 c17 -14 63 -35 103 -46 40 -12 84 -33 98 -46 l26 -24 -30 -34 c-17
-19 -41 -61 -53 -95 -12 -33 -24 -60 -26 -60 -2 0 -19 11 -36 24 -57 42 -115
66 -162 66 -25 0 -61 7 -80 14 -58 25 -49 56 43 146 42 43 79 77 82 78 3 1 19
-10 35 -23z m-230 -75 c3 -6 0 -26 -7 -46 -11 -31 -10 -40 7 -72 13 -24 36
-45 65 -60 53 -27 63 -52 55 -136 -8 -72 -50 -209 -69 -225 -39 -33 -98 -12
-134 47 -29 48 -79 82 -119 82 -29 0 -61 28 -84 73 -33 65 -57 85 -131 109
-37 12 -68 25 -68 29 0 8 137 105 207 146 24 14 70 34 101 44 62 20 167 25
177 9z m-411 -88 c-119 -85 -182 -112 -258 -112 -80 0 -86 13 -19 42 89 39
113 47 204 73 110 31 120 31 73 -3z m1054 4 c26 -13 83 -52 126 -85 44 -34 97
-71 118 -83 21 -12 38 -25 38 -29 0 -4 -33 -19 -72 -35 -61 -23 -90 -28 -178
-29 -120 -3 -158 -15 -223 -73 -84 -75 -79 -76 -72 9 16 181 44 268 102 319
43 38 94 40 161 6z m-1464 -98 c18 -18 85 -59 148 -91 99 -49 116 -61 121 -85
8 -41 43 -80 97 -107 26 -13 50 -31 53 -39 11 -28 70 -56 118 -56 35 0 56 7
88 31 40 29 44 29 67 14 13 -8 24 -22 24 -29 0 -26 59 -66 98 -66 l37 0 0
-112 c0 -92 4 -124 22 -172 31 -82 67 -124 129 -153 57 -26 69 -43 32 -43 -37
1 -104 41 -163 99 -49 47 -55 57 -55 95 0 133 -174 190 -293 94 -33 -25 -45
-29 -75 -24 -20 3 -48 14 -62 26 -14 11 -55 37 -92 57 -55 31 -68 43 -68 63
-1 64 -95 192 -170 230 -81 41 -159 33 -198 -19 l-21 -29 -46 21 c-25 11 -45
24 -45 29 0 11 69 55 108 69 17 6 32 14 32 17 1 4 2 37 3 74 2 61 5 70 36 102
19 20 36 36 38 36 2 0 18 -15 37 -32z m1058 -28 c25 -17 58 -48 73 -70 31 -44
34 -89 15 -191 -18 -94 -98 -189 -159 -189 -29 0 -77 25 -84 44 -4 9 13 55 36
103 l42 88 -1 123 c-2 141 1 143 78 92z m-802 -45 c0 -9 -6 -12 -15 -9 -8 4
-15 10 -15 15 0 5 7 9 15 9 8 0 15 -7 15 -15z m132 -26 c50 -12 72 -32 141
-129 26 -35 40 -46 65 -48 18 -2 32 -7 32 -12 0 -9 -73 -40 -95 -40 -26 0 -63
22 -75 44 -6 13 -36 35 -66 49 -59 29 -84 67 -84 127 0 25 3 30 18 26 9 -3 38
-10 64 -17z m1570 -65 c62 -44 60 -54 -11 -54 -62 0 -225 -25 -266 -40 -17 -7
-21 -14 -17 -38 3 -27 0 -31 -45 -53 -51 -25 -93 -28 -213 -14 -60 6 -73 4
-164 -29 -55 -20 -101 -34 -104 -32 -7 8 104 113 171 162 73 54 108 64 223 64
78 0 104 5 190 35 121 43 174 43 236 -1z m-2799 -120 l27 -25 -19 -27 c-11
-15 -40 -54 -64 -87 -42 -55 -44 -61 -30 -77 14 -15 13 -20 -6 -47 -12 -16
-21 -38 -21 -50 0 -19 -3 -18 -56 12 -31 18 -58 37 -61 44 -3 7 12 40 32 74
42 68 151 209 163 209 4 0 20 -12 35 -26z m2917 -5 c32 -17 68 -41 80 -54 l23
-24 -27 -7 c-15 -3 -97 -4 -184 -2 -120 4 -167 9 -200 23 -44 18 -70 49 -52
60 24 15 142 33 219 34 75 1 89 -2 141 -30z m-2076 -10 c53 -15 120 -80 156
-152 l31 -62 -28 -7 c-15 -4 -75 -14 -133 -22 -130 -17 -172 -37 -233 -112
-51 -61 -55 -81 -16 -76 85 9 117 5 179 -23 36 -16 77 -42 92 -57 14 -15 34
-28 45 -28 10 0 54 -18 98 -39 99 -48 145 -61 213 -61 67 0 82 8 162 85 81 79
135 115 170 115 38 0 43 -21 19 -86 -40 -107 -129 -194 -218 -213 -74 -16
-138 0 -280 70 -146 71 -201 82 -297 55 -64 -19 -103 -41 -209 -122 -38 -29
-87 -60 -107 -68 -74 -31 -238 -9 -238 32 0 27 67 156 104 198 39 45 159 114
200 114 28 0 37 26 11 36 -19 8 -101 -20 -196 -67 -89 -44 -103 -46 -180 -23
-72 22 -161 21 -229 -3 -30 -10 -104 -47 -165 -83 -109 -65 -203 -146 -304
-265 l-43 -50 7 39 c21 122 152 292 307 398 128 86 185 96 425 73 241 -23 341
-8 432 64 84 67 125 170 97 248 -14 40 -14 41 12 66 42 38 58 42 116 26z
m-228 -45 c36 -26 70 -72 61 -81 -4 -4 -38 1 -76 11 -152 40 -350 14 -503 -64
-43 -22 -78 -35 -78 -30 0 32 200 138 322 170 99 27 235 24 274 -6z m2719 -54
c25 -32 45 -60 45 -63 0 -5 -159 58 -168 68 -8 8 60 65 70 59 4 -3 28 -31 53
-64z m-465 -16 c124 -1 257 -6 295 -12 171 -27 427 -185 538 -332 44 -59 80
-125 76 -139 -2 -6 -53 35 -114 91 -217 200 -310 239 -680 288 -239 32 -339
58 -402 106 -48 36 -41 46 15 21 44 -20 63 -22 272 -23z m-218 -68 c70 -31
170 -52 323 -66 210 -20 321 -49 452 -120 103 -55 173 -111 280 -224 73 -76
101 -114 132 -179 42 -87 65 -174 59 -219 l-3 -27 -55 44 c-148 120 -157 131
-276 317 -87 138 -192 251 -265 289 -76 38 -241 90 -319 100 -427 51 -426 51
-582 5 -111 -33 -120 -34 -153 -21 -24 11 -74 15 -168 15 -151 0 -234 12 -259
38 -16 16 -14 17 36 19 32 0 78 12 117 28 200 84 211 87 269 81 145 -17 174
-17 215 2 l40 19 50 -38 c28 -21 76 -49 107 -63z m-2053 21 c41 -12 76 -28 78
-34 7 -20 -76 -101 -131 -128 -80 -39 -172 -46 -406 -32 l-204 12 64 49 c181
137 412 188 599 133z m1262 -137 c21 -6 107 -9 191 -8 184 4 202 -3 283 -98
46 -55 104 -168 92 -181 -3 -2 -35 9 -73 24 -74 30 -94 31 -349 22 -171 -6
-224 35 -264 204 -12 49 -19 97 -16 108 6 18 11 16 52 -21 25 -22 63 -45 84
-50z m827 26 c37 -8 122 -18 188 -21 129 -7 211 -25 259 -57 16 -11 62 -54
101 -95 l71 -74 -25 -17 c-20 -13 -46 -17 -117 -15 -49 1 -171 4 -270 5 l-181
3 -74 37 c-66 32 -247 178 -249 200 -2 13 123 46 176 47 28 1 83 -6 121 -13z
m-1591 -23 l55 -27 -43 -18 c-23 -10 -62 -37 -86 -58 -55 -51 -85 -52 -221 -4
-101 36 -102 37 -85 56 29 32 89 58 135 59 24 0 61 4 83 8 71 15 105 12 162
-16z m2532 -15 l23 -41 -41 34 c-44 37 -50 49 -23 49 10 0 27 -18 41 -42z
m-2059 -35 l32 -26 -54 -17 c-72 -22 -99 -42 -148 -106 -52 -69 -92 -94 -148
-94 -46 0 -166 37 -233 71 l-40 20 43 40 c70 64 112 82 180 77 40 -3 68 -11
89 -27 l31 -23 43 42 c40 39 102 68 152 69 12 1 36 -11 53 -26z m891 -88 c84
-79 149 -116 248 -141 63 -16 109 -15 242 2 56 7 111 -7 165 -42 63 -41 69
-57 43 -111 -28 -58 -38 -182 -18 -219 11 -22 11 -27 -1 -34 -29 -18 -52 -10
-103 38 -70 66 -96 82 -130 82 -19 0 -44 13 -70 35 -55 47 -78 52 -116 24 -26
-19 -38 -21 -100 -17 -78 6 -101 18 -101 54 0 28 -65 233 -87 279 -9 17 -33
53 -54 82 -22 29 -39 55 -39 58 0 14 48 -22 121 -90z m821 46 c80 -51 168
-151 251 -286 102 -164 170 -244 280 -328 70 -53 77 -66 52 -87 -12 -10 -25
-10 -68 4 -28 9 -61 13 -72 10 -48 -13 -145 90 -230 245 -81 149 -96 168 -157
207 -32 21 -58 40 -58 43 0 3 18 19 40 34 22 16 40 32 40 37 0 5 -13 18 -29
29 -34 25 -117 121 -104 121 5 0 30 -13 55 -29z m-3584 -59 c9 -6 -2 -20 -37
-50 l-49 -42 21 50 c20 49 37 59 65 42z m2021 -124 c63 -57 104 -78 156 -78
19 0 35 -4 35 -9 0 -23 79 -54 203 -81 74 -16 153 -38 175 -49 88 -45 152
-142 160 -240 l4 -56 -51 53 c-135 140 -282 193 -626 227 -88 9 -171 19 -185
22 -51 12 -52 20 -11 101 21 43 44 96 51 120 7 23 17 42 23 42 5 0 35 -23 66
-52z m-1539 12 c41 -11 84 -20 96 -20 19 0 17 -6 -23 -87 -61 -125 -63 -139
-22 -160 17 -10 46 -30 63 -45 l31 -27 -33 -1 c-26 0 -44 10 -86 50 -29 28
-57 50 -63 50 -20 0 -45 -39 -50 -78 -5 -40 12 -86 46 -127 33 -38 61 -96 75
-156 17 -73 5 -140 -37 -212 -51 -86 -101 -106 -176 -67 -75 38 -123 130 -68
130 108 1 209 152 178 266 -15 57 -41 87 -103 118 -29 15 -60 33 -69 39 -30
22 -59 81 -59 119 0 42 36 78 102 105 26 10 38 21 36 32 -14 72 -231 -64 -374
-235 -61 -73 -100 -110 -131 -125 -24 -12 -47 -19 -50 -15 -11 11 70 120 146
196 123 123 278 224 394 255 70 18 89 18 177 -5z m2098 -25 c78 -19 128 -44
167 -85 27 -28 30 -38 33 -108 4 -113 -5 -119 -72 -45 -65 71 -87 81 -256 118
-142 31 -191 52 -208 89 l-12 26 68 1 c37 0 87 4 112 8 69 13 100 12 168 -4z
m997 -38 c18 -10 17 -11 -13 -19 -25 -7 -38 -5 -57 9 -13 10 -25 22 -25 26 0
10 68 -2 95 -16z m-2227 -71 c45 -22 87 -45 93 -52 12 -14 -17 -19 -161 -28
-70 -5 -96 -11 -145 -37 -171 -90 -213 -108 -271 -118 -71 -13 -132 -3 -174
29 -28 21 -29 21 65 39 49 9 81 25 177 91 158 109 187 121 268 118 51 -3 83
-12 148 -42z m2324 -13 c29 -32 58 -85 58 -108 0 -9 -9 -15 -23 -15 -23 0 -61
-23 -162 -96 l-50 -36 -13 49 c-17 66 -17 125 2 161 37 71 140 96 188 45z
m-3542 -73 c0 -20 -5 -30 -15 -30 -9 0 -30 -7 -48 -16 -31 -16 -30 -14 13 30
24 25 45 46 47 46 2 0 3 -13 3 -30z m1613 -5 c-5 -7 -34 -34 -66 -59 -84 -65
-130 -73 -305 -48 -204 29 -244 18 -313 -91 -29 -47 -39 -56 -39 -39 0 12 7
39 15 59 45 108 152 144 458 158 87 4 177 13 200 21 55 17 60 17 50 -1z m99
-31 c21 -11 87 -21 197 -30 407 -33 594 -114 687 -300 16 -33 35 -63 42 -69
16 -13 17 -275 2 -401 -10 -84 -57 -288 -80 -348 -18 -48 -111 -199 -161 -263
-27 -33 -95 -101 -152 -149 -56 -48 -127 -111 -157 -140 -94 -87 -173 -114
-332 -114 -99 0 -129 13 -198 85 -30 31 -98 91 -150 132 -169 134 -221 202
-306 409 -73 176 -114 364 -114 521 0 75 2 83 23 94 12 7 39 27 60 45 33 31
57 42 57 29 0 -3 -12 -27 -27 -54 -24 -41 -26 -51 -14 -65 7 -9 22 -16 33 -16
10 0 33 -14 51 -31 98 -94 186 -109 342 -59 55 18 107 39 115 47 13 13 11 18
-23 48 -67 58 -102 70 -202 69 -80 0 -98 -4 -157 -32 -92 -44 -96 -40 -14 13
93 60 134 72 193 57 54 -15 67 -8 34 19 -27 22 -99 26 -152 8 -19 -7 -62 -32
-97 -55 -76 -53 -100 -58 -78 -16 23 44 91 100 133 109 21 4 74 6 118 4 147
-8 220 -6 253 8 37 16 47 49 10 35 -13 -5 -105 -9 -205 -9 -208 0 -205 -2
-152 78 22 33 52 59 98 86 65 39 131 109 131 140 0 9 19 28 43 43 23 15 56 41
72 57 36 35 37 36 77 15z m1271 -38 c32 -24 67 -79 67 -107 0 -15 -12 -7 -55
36 -31 30 -60 55 -65 55 -5 0 -12 -11 -16 -24 -9 -39 -38 -57 -97 -63 -48 -5
-62 -2 -101 21 -25 15 -46 28 -46 30 0 2 5 17 11 34 10 29 13 31 32 20 38 -21
147 -16 187 8 37 22 39 22 83 -10z m-2608 -57 c30 -33 103 -53 140 -39 20 7
40 5 85 -10 69 -23 148 -26 211 -7 l45 14 -1 -98 -1 -99 -35 -22 c-19 -13 -44
-43 -56 -68 -42 -82 -23 -152 49 -180 18 -8 34 -14 36 -16 2 -1 -5 -19 -16
-41 -11 -21 -27 -62 -37 -91 -19 -59 -49 -85 -92 -80 -24 2 -33 14 -63 73 -28
56 -40 71 -61 73 -32 4 -79 -32 -79 -61 0 -54 67 -117 125 -117 34 0 33 -32
-2 -60 -57 -45 -112 -10 -234 147 -55 70 -60 109 -21 165 33 48 72 163 72 212
0 53 -24 118 -79 213 -47 82 -61 129 -44 147 4 4 13 -1 20 -11 8 -10 24 -30
38 -44z m-344 -16 c-39 -13 -61 -37 -61 -64 0 -29 20 -33 45 -9 28 26 55 21
55 -10 0 -31 -53 -80 -85 -80 -42 0 -85 50 -85 99 0 63 17 88 74 110 l51 19
21 -26 22 -26 -37 -13z m3593 47 c54 -20 84 -113 49 -152 -23 -26 -42 -23 -79
13 -25 25 -38 30 -58 25 -37 -9 -56 -33 -56 -72 0 -77 -52 -134 -123 -134 -55
0 -113 65 -142 159 -7 23 -7 24 47 17 68 -9 90 0 193 75 46 33 96 64 112 69
15 4 29 9 30 9 1 1 13 -3 27 -9z m-3776 -67 c-8 -44 -6 -67 8 -116 5 -15 1
-18 -23 -15 -23 2 -30 10 -41 45 -14 42 -14 43 25 87 21 25 39 45 39 46 1 0
-3 -21 -8 -47z m3290 12 c20 -17 31 -38 36 -65 9 -60 44 -147 73 -181 29 -34
81 -59 127 -59 l31 -1 -24 -19 c-32 -28 -69 -25 -143 10 -34 17 -77 33 -95 36
-43 8 -96 -19 -127 -67 -27 -40 -40 -47 -52 -28 -12 21 -109 59 -149 59 -30 0
-50 -8 -77 -30 l-37 -30 -5 42 c-3 24 -8 79 -11 123 -4 44 -10 97 -15 118 -10
47 1 54 53 32 65 -27 144 -14 193 32 l28 26 38 -43 c21 -23 42 -56 46 -73 10
-40 27 -44 47 -13 19 28 24 86 12 129 -10 35 10 36 51 2z m-1930 0 c1 -1 -19
-19 -45 -41 -26 -21 -77 -69 -113 -105 -63 -65 -119 -94 -134 -70 -10 15 29
118 59 157 14 19 36 39 48 45 37 20 164 30 185 14z m-992 -82 c32 -34 33 -113
4 -161 -22 -36 -88 -71 -133 -72 -57 0 -127 47 -127 86 0 6 18 14 40 18 62 10
102 51 107 113 3 29 0 59 -6 72 -12 21 -11 21 40 -4 28 -15 62 -38 75 -52z
m1234 56 c-12 -22 -125 -99 -146 -99 -7 0 -38 -41 -69 -90 -56 -89 -85 -117
-106 -104 -17 10 -1 111 25 169 45 98 91 128 205 136 47 3 90 7 94 7 4 1 3 -7
-3 -19z m-1729 -155 c-5 -43 -8 -80 -7 -82 2 -1 42 -6 90 -9 l86 -6 0 42 c0
49 16 54 25 9 4 -18 16 -47 26 -64 15 -24 19 -51 19 -115 0 -291 69 -596 194
-855 121 -251 306 -478 541 -664 51 -40 84 -74 91 -94 6 -17 22 -49 35 -71
l24 -40 -30 19 c-28 18 -30 18 -40 1 -62 -105 -129 -200 -140 -199 -14 2 -154
100 -214 151 l-34 29 29 33 29 32 74 -55 c41 -31 77 -56 81 -56 4 0 29 32 56
71 44 64 47 72 30 81 -24 13 -185 150 -215 182 -14 14 -29 26 -35 26 -7 0 -49
-38 -96 -85 -47 -47 -90 -85 -96 -85 -15 0 -118 116 -173 195 l-42 60 28 22
c15 13 33 23 39 23 5 0 31 -28 56 -63 78 -106 73 -104 146 -39 l62 57 -51 65
c-28 36 -76 103 -107 150 -31 47 -57 87 -58 88 -1 2 -52 -24 -113 -58 -90 -50
-114 -60 -126 -50 -21 18 -135 250 -135 276 0 17 9 25 36 34 19 7 37 10 38 8
2 -1 23 -45 46 -95 24 -51 47 -93 52 -93 13 0 148 69 148 77 0 3 -20 49 -44
102 -24 53 -55 131 -68 173 -15 52 -28 78 -38 78 -8 0 -64 -14 -125 -30 -60
-17 -113 -30 -117 -30 -13 0 -84 357 -73 368 2 2 21 6 43 9 44 6 42 9 57 -92
4 -22 11 -63 16 -91 l10 -51 82 17 c95 20 89 3 64 178 -10 62 -17 155 -17 207
l0 95 -99 0 c-54 0 -113 3 -131 7 l-33 6 6 113 c3 62 9 120 15 129 10 19 85
56 90 45 2 -4 -2 -43 -7 -86z m4064 8 c4 -26 10 -105 14 -177 l6 -130 128 -3
127 -3 0 -72 c0 -79 -26 -267 -38 -279 -4 -4 -25 -3 -45 3 -35 9 -38 13 -33
37 13 59 26 175 21 180 -3 3 -42 8 -88 10 l-82 4 -13 -95 c-7 -52 -22 -131
-32 -176 -11 -45 -20 -88 -20 -95 0 -7 51 -28 121 -50 l120 -37 -6 -32 c-9
-41 -67 -191 -94 -246 -24 -46 -29 -48 -71 -26 l-29 15 39 92 c21 51 36 96 32
99 -9 8 -154 60 -157 57 -1 -2 -21 -48 -45 -103 -23 -55 -57 -127 -76 -161
-19 -33 -34 -65 -34 -70 0 -6 49 -39 110 -74 l109 -64 -21 -35 c-36 -60 -116
-174 -151 -215 l-33 -39 -33 29 -32 29 66 88 c37 49 65 90 63 91 -34 27 -130
86 -140 86 -7 -1 -29 -24 -49 -53 -20 -29 -74 -94 -119 -146 l-82 -93 93 -95
94 -95 -70 -64 c-79 -72 -180 -149 -197 -149 -6 0 -20 13 -32 29 l-21 28 45
37 c24 20 62 52 84 72 l40 37 -53 61 c-29 33 -56 61 -60 61 -3 0 -29 -19 -56
-41 -28 -23 -93 -71 -145 -107 -52 -36 -96 -67 -98 -68 -2 -1 27 -53 64 -114
66 -109 68 -112 49 -127 -29 -22 -237 -123 -253 -123 -11 0 -42 55 -42 74 0 3
40 24 89 47 l90 41 -38 77 -39 76 28 23 c15 13 40 51 55 85 23 52 37 69 89
104 88 61 237 196 317 288 201 230 369 568 429 865 42 210 50 429 21 610 -8
47 -6 58 12 82 l21 28 22 -21 c13 -12 25 -39 29 -67z m-203 41 c15 -14 38 -27
50 -28 20 -1 24 -9 31 -61 14 -105 1 -447 -22 -558 -77 -374 -246 -689 -511
-954 -87 -87 -229 -206 -237 -199 -1 2 2 32 7 67 5 36 10 105 10 153 0 87 1
90 51 185 l51 97 -4 90 c-3 60 0 100 8 120 7 17 13 42 14 56 0 14 7 40 16 58
10 21 15 50 12 86 l-3 54 71 3 c39 2 90 0 113 -3 23 -3 44 -2 47 2 2 4 -5 24
-17 44 -28 48 -22 90 33 220 36 86 42 110 42 175 1 41 -3 87 -7 101 -8 24 -6
27 23 33 37 7 87 57 97 95 3 14 14 34 23 43 10 9 23 41 30 70 16 74 18 78 32
78 6 0 24 -12 40 -27z m-3802 -42 c0 -5 16 -15 35 -22 56 -21 43 -42 -18 -32
-33 5 -37 9 -37 34 0 16 5 29 10 29 6 0 10 -4 10 -9z m1315 -8 c-4 -10 -10
-50 -12 -89 -5 -61 -10 -76 -35 -103 -43 -45 -68 -38 -68 21 0 24 42 111 76
156 27 34 51 44 39 15z m2965 -24 c0 -6 -50 -19 -76 -19 -8 0 -14 6 -14 13 0
8 16 12 45 12 25 0 45 -2 45 -6z m-3112 -74 c9 -7 -30 -122 -45 -132 -24 -18
-83 -16 -105 4 -55 49 26 149 111 136 20 -3 37 -7 39 -8z m2277 -79 c39 -30
70 -83 80 -136 6 -37 4 -46 -64 -240 -23 -63 -41 -128 -41 -144 0 -24 -2 -26
-14 -16 -15 12 -30 71 -42 170 -10 88 -43 134 -116 164 l-37 16 24 42 c15 27
25 59 25 85 0 34 5 46 32 68 27 23 39 26 75 22 25 -3 57 -16 78 -31z m-3192
-42 c6 -55 44 -107 110 -148 36 -22 57 -28 100 -27 52 0 55 -1 62 -27 8 -35
48 -98 91 -142 121 -126 112 -113 107 -163 -3 -25 -3 -61 1 -81 7 -38 87 -142
116 -151 11 -4 22 -23 30 -53 6 -26 20 -61 30 -77 17 -28 18 -34 5 -70 -8 -22
-14 -53 -14 -70 -1 -46 33 -109 70 -135 19 -13 40 -30 47 -38 16 -21 15 -78
-3 -182 -8 -47 -15 -102 -15 -122 0 -21 -3 -38 -6 -38 -14 0 -158 126 -240
212 -246 255 -417 582 -484 924 -33 170 -45 434 -20 434 4 0 10 -21 13 -46z
m2830 35 c40 -11 117 -81 117 -106 0 -8 -9 -28 -21 -44 -18 -26 -19 -34 -9
-65 7 -19 10 -38 6 -41 -9 -9 -51 5 -91 33 -37 25 -39 25 -52 8 -15 -20 -29
-67 -38 -129 -12 -70 -27 -13 -26 97 0 58 -5 115 -13 138 -15 44 -2 75 43 103
31 20 35 20 84 6z m-1400 -110 c41 -10 42 -12 42 -47 -1 -51 -8 -58 -64 -72
-90 -21 -181 8 -181 59 0 24 14 35 70 54 54 19 78 20 133 6z m121 -70 c-3 -5
-14 -9 -25 -9 -14 0 -19 7 -19 25 0 25 1 25 25 9 14 -9 22 -20 19 -25z m-644
-23 c0 -30 3 -61 6 -70 3 -9 1 -16 -5 -16 -6 0 -11 11 -11 24 0 13 -7 40 -15
60 -17 39 -13 56 11 56 10 0 14 -14 14 -54z m280 34 c0 -5 -2 -10 -4 -10 -3 0
-8 5 -11 10 -3 6 -1 10 4 10 6 0 11 -4 11 -10z m-368 -189 c-16 -20 -69 -66
-118 -103 -49 -36 -108 -87 -131 -112 -23 -25 -43 -46 -46 -46 -11 0 -14 55
-5 86 8 30 13 34 41 34 48 0 77 20 101 67 13 27 28 43 39 43 39 0 77 35 110
97 l32 63 3 -46 c3 -39 -2 -53 -26 -83z m2209 92 c22 -24 27 -43 39 -136 5
-42 19 -95 31 -118 l21 -42 -58 5 c-46 4 -61 10 -73 28 -9 13 -44 51 -79 84
-75 73 -102 112 -102 149 0 15 2 27 4 27 2 0 24 -9 50 -21 61 -27 100 -23 104
11 7 56 23 59 63 13z m-2465 -24 c14 -46 2 -49 -29 -6 -17 22 -18 29 -7 42 16
19 22 14 36 -36z m2140 -141 c9 -17 62 -80 119 -139 149 -156 165 -212 87
-313 -43 -58 -62 -68 -62 -34 -1 41 -36 101 -104 178 -36 41 -80 103 -97 137
l-31 61 23 127 23 126 13 -55 c7 -31 20 -70 29 -88z m-1786 73 c17 -32 12 -85
-10 -109 -11 -12 -53 -37 -94 -55 -93 -44 -153 -97 -183 -166 -21 -47 -26 -52
-38 -40 -8 8 -17 28 -21 46 -5 27 0 37 37 78 24 27 78 74 120 106 42 32 96 80
120 108 24 28 47 50 51 51 4 0 12 -9 18 -19z m1950 -107 c74 -71 120 -148 119
-198 l0 -31 -22 30 c-12 16 -48 57 -79 90 -59 63 -119 175 -93 175 3 0 37 -30
75 -66z m-1897 -94 c28 -98 24 -127 -25 -169 -122 -104 -170 -164 -204 -256
-5 -16 -9 -13 -18 22 -6 23 -19 50 -28 60 -41 45 -50 132 -19 198 27 57 74 98
168 144 44 22 84 45 88 50 12 21 20 11 38 -49z m1660 -106 l27 -46 -26 -59
c-29 -63 -37 -70 -53 -40 -21 39 -24 98 -6 145 10 25 20 46 24 46 3 0 18 -21
34 -46z m-1553 -166 c24 -46 55 -101 71 -123 35 -51 126 -138 208 -201 36 -26
102 -83 147 -125 94 -89 108 -94 259 -94 161 1 254 37 350 135 33 34 102 98
152 141 89 77 199 208 231 276 9 18 19 33 23 33 3 0 16 -23 28 -52 l22 -52
-48 -71 c-65 -95 -204 -256 -289 -334 -105 -96 -148 -122 -225 -137 -37 -7
-81 -20 -97 -28 -24 -12 -37 -13 -62 -5 -17 6 -49 9 -72 6 -23 -3 -53 0 -73 9
-40 16 -105 18 -157 4 -48 -14 -83 1 -162 65 -70 57 -197 208 -249 296 -57 97
-100 215 -102 282 -1 31 -1 57 0 57 1 0 21 -37 45 -82z m1650 47 l35 -36 -38
-69 c-30 -54 -35 -70 -22 -70 8 0 30 20 47 45 17 25 33 43 35 41 11 -11 -68
-140 -147 -239 -84 -106 -95 -127 -66 -127 13 0 135 147 194 232 36 53 50 63
28 19 -52 -99 -292 -378 -418 -483 -46 -38 -50 -40 -78 -28 -17 7 -30 14 -30
16 0 2 37 40 82 84 63 61 80 82 71 91 -9 9 -32 -7 -99 -70 -48 -44 -95 -81
-104 -81 -9 0 -32 5 -49 11 l-33 11 39 31 c183 148 417 439 482 600 13 31 26
57 30 57 4 0 23 -16 41 -35z m-1750 -20 c0 -29 -9 -43 -61 -92 -62 -59 -109
-126 -109 -156 0 -10 -5 -17 -11 -17 -16 0 -5 90 17 132 16 31 145 168 158
168 3 0 6 -16 6 -35z m55 -184 c52 -138 207 -340 350 -458 l49 -40 -41 -22
c-23 -11 -47 -21 -52 -21 -5 0 -36 23 -67 50 -55 49 -98 70 -111 56 -4 -4 22
-36 57 -71 64 -65 73 -90 23 -64 -35 18 -137 121 -208 208 -56 70 -114 176
-146 269 -16 47 -17 58 -6 70 12 11 17 6 32 -35 27 -73 74 -163 85 -163 21 0
18 23 -15 104 -58 144 -58 151 -23 181 17 15 34 22 38 18 3 -4 19 -41 35 -82z
m1869 -115 c-14 -28 -36 -69 -47 -91 -18 -33 -23 -65 -28 -180 -14 -303 -103
-441 -294 -453 -132 -8 -259 36 -357 124 -34 30 -88 71 -120 91 -32 20 -56 38
-54 41 11 11 107 -32 159 -71 140 -105 235 -146 353 -155 56 -3 76 -1 97 13
49 32 34 40 -76 40 -91 1 -109 4 -167 30 -35 16 -98 54 -140 84 -108 78 -167
103 -235 100 -80 -4 -91 15 -22 35 107 31 158 20 367 -81 174 -85 229 -103
279 -92 70 15 109 108 120 289 7 103 13 137 36 190 15 36 32 83 38 105 8 26
30 57 62 88 l50 49 3 -52 c2 -42 -3 -64 -24 -104z m-2125 -14 c27 -17 63 -50
78 -73 l28 -43 0 -200 c0 -171 3 -206 17 -236 38 -76 101 -81 238 -20 52 24
106 51 120 60 45 31 204 108 267 129 101 34 186 23 196 -24 2 -14 2 -27 0 -29
-3 -2 -37 -2 -77 1 l-71 6 -185 -95 c-111 -57 -208 -100 -242 -107 -65 -14
-81 -27 -43 -37 59 -15 108 5 389 150 49 26 90 45 92 43 2 -2 0 -16 -4 -31 -6
-23 -19 -33 -62 -49 -30 -11 -93 -43 -140 -71 -152 -90 -176 -99 -273 -104
-82 -4 -91 -3 -151 27 -74 36 -148 115 -165 176 -15 56 -13 155 7 260 16 83
19 90 40 87 18 -3 22 1 22 25 -1 37 -23 63 -92 106 -63 40 -78 60 -78 109 l0
33 19 -31 c10 -17 42 -45 70 -62z m1935 -97 c-7 -25 -17 -103 -23 -173 -10
-133 -30 -205 -62 -222 -38 -21 -114 -4 -204 46 l-47 27 103 97 c57 54 136
136 174 183 39 48 71 87 72 87 0 0 -5 -20 -13 -45z m-1732 -140 c61 -82 151
-177 198 -210 22 -15 40 -31 40 -35 0 -13 -180 -90 -211 -90 -18 0 -39 9 -54
25 -25 24 -25 26 -25 201 0 98 2 175 4 173 2 -2 24 -31 48 -64z m926 -216 c31
-29 76 -61 100 -71 47 -21 48 -24 26 -56 -23 -33 -85 -30 -151 8 -60 34 -101
89 -110 145 l-6 38 42 -6 c32 -4 54 -17 99 -58z m-147 -61 c6 -13 25 -37 41
-55 l30 -31 -23 -8 c-38 -12 -108 -7 -133 9 -13 9 -29 30 -36 48 -12 28 -12
33 5 45 10 8 38 14 62 14 34 0 45 -4 54 -22z m-132 -99 c44 -59 134 -76 206
-39 32 16 45 18 74 10 20 -5 56 -10 80 -10 36 0 49 6 77 34 l35 35 57 -51 c31
-27 75 -59 97 -71 l40 -20 -50 -13 c-152 -40 -410 -60 -582 -45 -128 11 -332
47 -346 60 -9 9 147 106 203 127 58 21 84 17 109 -17z m-239 -172 c293 -65
580 -62 868 8 87 21 116 24 193 18 81 -5 89 -8 68 -19 -13 -6 -43 -18 -66 -25
-24 -6 -43 -16 -43 -21 0 -4 16 -57 35 -117 19 -59 35 -115 35 -123 0 -11 -23
-22 -78 -37 -106 -28 -191 -45 -198 -38 -3 3 -8 23 -11 45 l-5 39 86 18 c61
13 86 22 86 33 0 33 -42 152 -53 152 -7 0 -68 -11 -137 -25 -69 -13 -137 -25
-152 -25 -15 0 -29 -3 -31 -7 -2 -5 2 -64 9 -133 7 -68 11 -127 8 -129 -3 -3
-70 -7 -148 -9 -136 -4 -143 -3 -148 16 -3 11 -3 32 -1 46 5 26 6 26 99 26 51
0 95 3 97 8 2 4 2 44 -1 88 l-4 81 -162 5 c-88 3 -162 4 -164 3 -2 -1 -11 -60
-20 -130 l-17 -127 -60 7 c-33 3 -100 15 -149 27 l-88 20 6 36 c3 19 9 39 13
43 5 5 48 -1 98 -11 49 -11 92 -17 96 -13 5 7 29 136 29 161 0 6 -24 13 -52
17 -44 6 -174 40 -264 69 -19 6 -24 -3 -59 -101 -52 -149 -49 -144 -88 -131
-56 19 -234 105 -241 117 -8 13 23 71 39 71 6 0 48 -18 94 -40 l82 -40 19 43
c10 23 25 59 34 80 15 37 16 37 73 38 32 1 69 5 83 9 30 11 44 9 190 -23z"/>
<path d="M3818 4291 c-40 -13 -75 -34 -114 -70 -30 -28 -60 -51 -65 -51 -5 0
-9 -4 -9 -10 0 -25 47 -6 95 38 87 80 164 91 297 42 93 -34 181 -40 214 -15
18 15 15 15 -32 10 -56 -7 -73 -3 -204 44 -98 36 -105 36 -182 12z"/>
<path d="M3791 4179 c-63 -12 -154 -89 -106 -89 9 0 25 8 36 19 33 30 118 50
176 41 47 -8 120 -37 111 -45 -1 -1 -32 3 -68 11 -80 18 -140 11 -204 -24 -51
-28 -82 -75 -70 -106 3 -9 25 -21 48 -27 22 -5 57 -14 76 -20 67 -17 151 -11
210 17 77 36 124 73 111 88 -7 9 2 15 35 25 60 18 112 80 87 104 -3 4 -21 -8
-38 -27 -17 -19 -44 -38 -58 -41 -27 -7 -31 -5 -151 59 -52 28 -108 32 -195
15z m172 -105 c34 -11 49 -22 53 -39 8 -33 2 -39 -59 -60 -40 -13 -67 -16
-109 -11 -63 8 -83 25 -90 74 -4 29 -2 33 26 41 50 15 129 12 179 -5z m-239
-73 c-2 -2 -11 -1 -20 3 -14 5 -14 9 -3 22 12 14 14 14 20 -3 3 -10 5 -20 3
-22z"/>
<path d="M3369 4138 c-1 -1 -2 -93 -4 -203 -2 -114 -8 -212 -14 -228 -20 -51
-14 -140 12 -178 25 -38 77 -60 116 -49 43 11 32 35 -18 37 -82 4 -103 52 -79
186 19 105 20 428 1 434 -7 3 -13 3 -14 1z"/>
<path d="M3600 4013 c1 -48 59 -157 76 -140 4 4 -2 24 -13 45 -11 20 -26 54
-33 74 -15 47 -30 58 -30 21z"/>
<path d="M3680 3546 c-12 -32 -24 -39 -89 -47 -90 -13 -90 -32 1 -27 87 4 118
22 118 70 0 34 -17 37 -30 4z"/>
<path d="M3180 3505 c0 -9 11 -27 25 -41 20 -20 30 -23 52 -17 16 5 56 8 91 7
34 0 62 2 62 6 0 4 -16 16 -37 25 -31 15 -43 16 -89 6 -56 -13 -74 -9 -74 15
0 8 -7 14 -15 14 -8 0 -15 -7 -15 -15z"/>
<path d="M3473 3403 c-18 -2 -33 -8 -33 -12 0 -14 42 -21 62 -10 17 9 26 31
11 27 -5 0 -23 -3 -40 -5z"/>
<path d="M3495 3360 c-11 -5 -34 -6 -51 -3 -21 3 -49 -3 -79 -16 -26 -12 -58
-21 -71 -21 -13 0 -24 -4 -24 -10 0 -20 48 -21 98 -1 41 16 57 18 81 10 21 -7
36 -7 49 0 15 8 31 7 62 -4 49 -17 90 -19 90 -5 0 6 -8 13 -17 17 -10 3 -36
14 -59 24 -44 21 -50 22 -79 9z"/>
<path d="M3745 3280 c-3 -5 -4 -14 -1 -19 14 -22 -85 -27 -163 -9 -40 9 -59 9
-90 -2 -30 -10 -46 -10 -75 0 -31 10 -52 9 -126 -6 l-89 -18 -25 23 -25 23
-25 -27 c-36 -38 -34 -59 3 -52 16 4 42 2 58 -2 20 -6 52 -2 103 11 72 19 77
19 127 3 48 -17 54 -17 77 -1 32 20 47 20 105 -1 43 -15 52 -15 119 0 39 9 79
14 87 11 24 -10 18 24 -10 51 -26 27 -40 31 -50 15z"/>
<path d="M3640 3153 c-25 -7 -67 -14 -95 -14 -81 -2 -299 6 -314 11 -27 9 -22
-19 6 -33 59 -30 438 -9 459 25 12 20 -12 25 -56 11z"/>
<path d="M1635 2118 c-2 -7 -39 -103 -81 -213 -42 -110 -112 -294 -156 -410
l-79 -210 33 -27 c74 -61 45 -75 370 178 161 125 324 252 361 282 l68 54 -32
24 c-18 13 -34 24 -35 24 -1 0 -125 -99 -275 -219 -151 -121 -275 -216 -277
-212 -1 3 56 150 128 325 72 176 129 320 128 321 -48 36 -134 95 -140 95 -5 0
-11 -6 -13 -12z"/>
<path d="M5112 1987 c-100 -72 -181 -134 -182 -137 0 -3 113 -158 251 -345
137 -187 254 -346 258 -354 7 -11 50 16 190 118 99 73 181 138 181 144 -1 14
-35 57 -45 57 -4 0 -56 -36 -116 -80 l-108 -79 -72 97 c-40 53 -83 111 -96
128 l-24 32 91 66 90 67 -26 34 -25 34 -87 -65 c-48 -35 -89 -64 -92 -64 -5 1
-157 208 -172 235 -6 9 27 39 106 96 l115 83 -20 28 c-11 15 -24 30 -28 32 -5
3 -90 -54 -189 -127z"/>
<path d="M2027 1356 c-97 -217 -177 -398 -177 -403 0 -8 88 -50 358 -170 l53
-23 15 36 c9 20 12 40 7 44 -4 4 -61 31 -126 60 -67 30 -116 58 -114 64 13 32
120 272 123 275 2 3 47 -14 100 -37 52 -23 99 -42 104 -42 7 0 30 53 30 70 0
4 -41 25 -91 46 -50 21 -93 44 -96 50 -4 10 101 251 116 267 4 4 63 -17 131
-48 68 -30 125 -55 126 -55 5 0 34 58 34 68 0 8 -396 192 -412 192 -2 0 -84
-177 -181 -394z"/>
<path d="M4695 1726 c-119 -38 -223 -128 -249 -216 -9 -30 -16 -72 -16 -95 0
-125 100 -351 204 -462 99 -107 190 -139 306 -109 150 39 270 153 270 258 0
43 -18 108 -30 108 -5 0 -29 -10 -53 -21 l-43 -21 12 -48 c17 -66 4 -117 -40
-157 -62 -57 -145 -56 -213 2 -111 95 -273 431 -273 565 0 47 4 56 39 91 32
32 46 39 77 39 51 0 92 -26 129 -81 16 -24 31 -46 32 -48 2 -3 35 10 73 29 68
33 69 34 55 59 -51 98 -168 142 -280 107z"/>
<path d="M2685 1528 c-12 -37 -193 -844 -190 -847 10 -9 160 -40 166 -33 3 4
23 85 45 180 l38 173 31 -7 c16 -3 33 -9 38 -13 4 -4 26 -95 50 -202 l42 -194
65 -17 c119 -30 113 -46 64 175 -24 105 -43 202 -44 214 0 16 8 23 29 28 46
10 107 59 137 111 22 37 28 63 32 123 5 90 -15 142 -71 185 -63 48 -105 62
-405 131 -13 3 -24 0 -27 -7z m232 -113 c96 -29 132 -110 97 -221 -20 -64 -74
-129 -117 -139 -15 -4 -52 -4 -83 0 -51 6 -55 9 -50 28 3 12 22 95 43 185 21
92 42 162 48 162 6 0 34 -7 62 -15z"/>
<path d="M4082 1495 c-30 -7 -55 -15 -56 -17 -4 -4 -116 -888 -116 -910 0 -14
6 -16 33 -11 17 3 35 8 39 12 3 3 14 69 23 146 10 77 22 145 29 151 6 6 58 21
116 33 58 13 115 25 126 28 19 4 31 -13 93 -121 40 -69 76 -128 80 -130 13 -8
166 30 166 42 0 19 -459 792 -470 791 -5 -1 -34 -7 -63 -14z m136 -427 c38
-65 47 -56 -92 -87 l-88 -19 6 41 c3 23 13 100 22 170 l17 128 51 -88 c29 -48
66 -114 84 -145z"/>
<path d="M3460 1421 c-132 -43 -189 -125 -189 -271 -1 -151 55 -211 250 -264
113 -31 164 -91 155 -181 -4 -41 -12 -56 -41 -82 -30 -28 -42 -33 -85 -33 -28
0 -65 6 -83 13 -31 13 -93 74 -115 113 -10 17 -15 15 -61 -31 l-51 -49 27 -28
c86 -89 293 -119 409 -60 114 59 170 206 131 343 -27 93 -82 135 -237 182
-111 34 -156 65 -171 118 -11 34 -10 48 2 82 19 54 53 78 115 79 59 2 92 -17
138 -78 l33 -43 48 49 47 48 -43 32 c-24 17 -57 39 -74 48 -34 17 -166 26
-205 13z"/>
</g>
</svg>
